<svg width="45" height="44" viewBox="0 0 45 44" fill="none" xmlns="http://www.w3.org/2000/svg">
<circle cx="22.5" cy="22" r="22" fill="#F8A0A0"/>
<mask id="mask0_12_446" style="mask-type:alpha" maskUnits="userSpaceOnUse" x="0" y="0" width="45" height="44">
<circle cx="22.5" cy="22" r="22" fill="#FED18F"/>
</mask>
<g mask="url(#mask0_12_446)">
<path d="M30.3941 17.8588C30.3941 19.1719 30.254 20.4342 29.9959 21.6118C29.9479 21.8304 29.8959 22.0462 29.84 22.2588C28.7213 26.5101 26.0302 29.5059 22.8882 29.5059C20.4636 29.5059 18.3075 27.722 16.9352 24.9538C16.4933 24.0624 16.1327 23.0689 15.8706 22C15.5551 20.7133 15.3823 19.3174 15.3823 17.8588C15.3823 17.2425 15.064 16.508 15.1235 15.9176C15.279 14.3725 15.1347 13.0573 15.6411 11.7765C16.1621 10.4589 16.2595 9.18503 17.0646 8.28235C18.2993 6.89811 21.2486 6.21176 22.8882 6.21176C24.6757 6.21176 26.7755 6.66367 28.0646 8.28235C29.6235 10.2397 30.2086 13.6638 30.3717 16.9529C30.3865 17.2519 30.3941 17.554 30.3941 17.8588Z" fill="#8C4E37"/>
<path d="M15.3823 17.8588C15.3823 17.8588 14.8504 17.3796 14.4764 17.4706C14.2309 17.5303 14.0819 17.6382 13.9588 17.8588C13.811 18.1236 13.8617 18.348 13.9588 18.6353C14.0624 18.9419 14.3575 18.9814 14.4764 19.2824C14.625 19.6584 14.4066 19.9194 14.4764 20.3176C14.5509 20.743 14.6428 20.9825 14.8646 21.3529C15.0309 21.6306 15.0756 21.8968 15.3823 22C15.563 22.0608 15.8706 22 15.8706 22C15.5551 20.7133 15.3823 19.3174 15.3823 17.8588Z" fill="#8C4E37"/>
<path d="M30.3717 16.9529C30.3865 17.2519 30.3941 17.554 30.3941 17.8588C30.3941 19.1719 30.254 20.4342 29.9959 21.6118L30.3717 21.4824C30.3717 21.4824 30.6664 21.0853 30.7823 20.8353C30.9249 20.5277 30.9841 20.393 31.0411 20.0588C31.1013 19.7066 31.0411 19.1529 31.0411 19.1529C31.0411 19.1529 30.9581 18.5909 31.0411 18.2471C31.1207 17.9175 31.2999 17.4706 31.2999 17.4706C31.2999 17.4706 31.438 17.0352 31.2999 16.8235C31.2004 16.6709 31.093 16.5835 30.9117 16.5647C30.6534 16.5379 30.3717 16.9529 30.3717 16.9529Z" fill="#8C4E37"/>
<path d="M29.84 22.2588C28.7213 26.5101 26.0302 29.5059 22.8882 29.5059C20.4636 29.5059 18.3075 27.722 16.9352 24.9538V29.5059L16.6764 30.0235L16.0294 30.4118L15.3823 32.2235L16.6764 34.4235L19.7823 36.8824L26.2529 37.7882L31.0411 36.6235L32.8529 34.4235L30.3717 30.0235H29.6176L29.84 22.2588Z" fill="#8C4E37"/>
<path d="M20.6881 8.15293H22.4999C22.4999 8.15293 23.6816 8.04488 24.4411 8.02352C24.9968 8.00789 25.3097 7.9898 25.8646 8.02352C26.3214 8.05128 26.6157 7.95702 27.0293 8.15293C27.3218 8.29146 27.5408 8.37676 27.6764 8.67058C27.8034 8.9459 27.5718 9.16242 27.6764 9.44705C27.7635 9.68424 27.9014 9.77179 28.0646 9.9647C28.2954 10.2375 28.6135 10.2681 28.7117 10.6118C28.7672 10.8061 28.6837 10.9292 28.7117 11.1294C28.7648 11.5106 28.8982 11.7075 29.0999 12.0353C29.2695 12.3109 29.4926 12.3838 29.6175 12.6823C29.7932 13.1019 29.5992 13.3926 29.6175 13.847C29.6524 14.7114 29.5464 15.2473 29.8764 16.047C30.0318 16.4237 30.394 16.9529 30.394 16.9529L30.7822 16.5647C30.7822 16.5647 30.8368 15.1433 30.7822 14.2353C30.7303 13.3718 30.6491 12.8912 30.5234 12.0353C30.3967 11.1721 30.3418 10.6829 30.1352 9.83528C29.8702 8.74839 29.8089 8.07451 29.2293 7.11764C28.6921 6.23069 28.2497 5.79515 27.4175 5.17646C26.7281 4.66386 26.2877 4.42388 25.4764 4.14117C24.464 3.78839 23.8305 3.72801 22.7587 3.75293C21.8367 3.77437 21.3136 3.87938 20.4293 4.14117C19.3022 4.47484 18.7013 4.80092 17.7117 5.43528C16.7746 6.03592 16.179 6.35635 15.5117 7.24705C14.9423 8.00693 14.7254 8.53076 14.4764 9.44705C14.1579 10.6185 14.2175 11.2588 14.3469 12.5529C14.4577 13.6604 14.3366 14.2958 14.4764 15.4C14.5797 16.2162 14.8646 17.6 14.8646 17.6L15.5117 17.9882C15.5117 17.9882 15.4063 16.993 15.3822 16.4353C15.3605 15.9304 15.3822 15.1412 15.3822 15.1412C15.3822 15.1412 15.2077 14.0435 15.5117 13.4588C15.5957 13.2971 15.678 13.2276 15.7705 13.0706C15.8852 12.8759 15.9436 12.7621 16.0293 12.5529C16.3191 11.8452 16.0562 11.3405 16.2881 10.6118C16.4938 9.96565 16.6085 9.56053 17.0646 9.05881C17.5078 8.57124 17.863 8.36131 18.4881 8.15293C19.3032 7.88124 19.829 8.15293 20.6881 8.15293Z" fill="#1F140A"/>
<path fill-rule="evenodd" clip-rule="evenodd" d="M27.6764 22.2588C27.6764 22.2588 27.3623 21.6324 27.0293 21.3529C26.7147 21.0888 26.4346 21.0182 26.0922 20.9317C25.9809 20.9036 25.863 20.8739 25.7352 20.8353C25.2891 20.7006 25.0304 20.6509 24.5705 20.5765C24.0194 20.4873 23.7048 20.4683 23.1469 20.447C23.0431 20.4431 22.9506 20.4373 22.8637 20.4318C22.6128 20.4159 22.4088 20.403 22.1117 20.447C21.6374 20.5173 21.0764 20.7274 20.8175 20.8353C20.4003 21.0091 19.9117 21.2235 19.9117 21.2235C19.9117 21.2235 19.3479 21.6675 19.1352 22C18.963 22.2693 18.8764 22.7765 18.8764 22.7765C18.8764 22.7765 18.3123 22.6537 17.9705 22.5176C17.9535 22.5109 17.9367 22.5042 17.92 22.4976C17.4015 22.2914 17.0665 22.1582 16.6764 21.7412C16.3446 21.3865 16.2336 21.1014 16.0661 20.6709C16.0542 20.6402 16.0419 20.6087 16.0293 20.5765C15.8952 20.2338 15.7705 19.6706 15.7705 19.6706C15.7705 19.6706 15.6164 21.1034 15.7705 22C15.8588 22.5138 15.9805 22.8426 16.1331 23.2546C16.1816 23.3859 16.2334 23.5255 16.2881 23.6823C16.3479 23.8535 16.3996 24.0094 16.4482 24.156C16.6186 24.6698 16.7516 25.0709 17.0646 25.6235C17.3808 26.1818 17.6264 26.4772 18.0146 26.9444C18.0423 26.9777 18.0707 27.0119 18.0999 27.047C18.2164 27.1874 18.3222 27.3195 18.4226 27.4448C18.873 28.0066 19.2137 28.4318 19.9117 28.8588C20.4721 29.2017 20.8327 29.3258 21.4646 29.5059C22.3932 29.7705 22.9607 29.8379 23.9234 29.7647C24.6449 29.7098 25.067 29.6543 25.7352 29.3765C26.6032 29.0155 27.0194 28.6253 27.6764 27.9529C28.3621 27.2511 28.6591 26.759 29.0999 25.8823C29.5092 25.0683 29.6714 24.5701 29.8764 23.6823C30.0341 22.9989 30.068 22.5775 30.1204 21.9243C30.1251 21.8653 30.13 21.8043 30.1352 21.7412C30.2337 20.5323 30.1352 18.6353 30.1352 18.6353L29.6175 20.1882C29.6175 20.1882 29.3903 21.022 29.0999 21.4823C29.0702 21.5294 29.0426 21.5742 29.0162 21.6172C28.8548 21.8796 28.7362 22.0724 28.4528 22.2588C28.2255 22.4084 27.8058 22.5176 27.8058 22.5176L27.6764 22.2588ZM26.101 22.2802C25.9696 22.065 25.8604 21.8861 25.6058 21.7412C25.1226 21.4662 24.1822 21.7412 24.1822 21.7412H23.1469C23.1469 21.7412 22.1883 21.6203 21.594 21.7412C21.5738 21.7453 21.5539 21.7493 21.5342 21.7533C21.0345 21.8546 20.701 21.9221 20.2999 22.2588C19.9669 22.5383 19.7617 22.7438 19.6528 23.1647C19.5769 23.4583 19.588 23.645 19.6528 23.9412C19.7548 24.4069 19.9169 24.6925 20.2999 24.9765C20.4815 25.111 20.6015 25.1688 20.8175 25.2353C20.8801 25.2545 20.9459 25.2775 21.0127 25.3008C21.3586 25.4215 21.7339 25.5525 21.8528 25.2353C21.8528 25.2353 21.8211 24.7365 21.8528 24.5882C21.8991 24.3724 21.991 24.3427 22.1349 24.2963C22.202 24.2747 22.2803 24.2494 22.3705 24.2C22.5817 24.0842 22.7652 24.1523 22.9645 24.2263C23.0998 24.2765 23.2423 24.3294 23.4058 24.3294C23.5323 24.3294 23.6412 24.2833 23.7449 24.2393C23.8897 24.178 24.0242 24.121 24.1822 24.2C24.2326 24.2252 24.2975 24.2495 24.3668 24.2756C24.5615 24.3487 24.7909 24.4348 24.8293 24.5882C24.9294 24.9885 24.9311 24.9884 25.0626 24.9782C25.1012 24.9752 25.1509 24.9713 25.2175 24.9765C25.4796 24.9966 25.6363 24.8706 25.822 24.721C25.8758 24.6777 25.9321 24.6325 25.994 24.5882C26.0439 24.5526 26.0919 24.52 26.138 24.4888C26.3608 24.3379 26.5371 24.2184 26.6411 23.9412C26.7475 23.6572 26.7232 23.4566 26.6411 23.1647C26.582 22.9547 26.4897 22.8338 26.3776 22.6869C26.3383 22.6353 26.2965 22.5806 26.2528 22.5176C26.1949 22.434 26.1466 22.3549 26.101 22.2802Z" fill="#1F140A"/>
<path d="M16.0295 31.3176C16.1322 30.762 16.6765 30.0235 16.6765 30.0235C16.6765 30.0235 14.6828 30.9265 13.4412 31.5765C11.6751 32.5011 10.7133 33.0792 9.04123 34.1647C7.15886 35.3868 6.20087 36.2141 4.3824 37.5294C2.91619 38.5899 1.78763 38.8567 0.629461 40.2471C-0.0528895 41.0662 -0.324794 41.6192 -0.794069 42.5765C-1.22371 43.4529 -1.69995 44.9059 -1.69995 44.9059L49.2883 45.5529C49.2883 45.5529 49.3814 44.0498 49.2883 43.0941C49.1468 41.6424 48.9786 40.8018 48.3824 39.4706C48.0493 38.7269 47.8066 38.3318 47.3471 37.6588C46.5803 36.5358 46.0479 35.9582 45.0177 35.0706C42.8942 33.241 41.13 33.0533 38.5471 31.9647C35.1448 30.5308 29.6177 29.1176 29.6177 29.1176V30.0235C29.6177 30.0235 30.0443 30.0844 30.2648 30.4118C30.7209 31.089 30.9299 31.5441 31.0412 32.3529C31.1885 33.4232 31.0668 34.1367 30.5236 35.0706C29.7041 36.4794 28.4792 36.738 26.9001 37.1412C25.431 37.5162 24.511 37.4035 23.0177 37.1412C21.6482 36.9006 20.8664 36.6555 19.653 35.9765C18.5234 35.3444 17.0648 33.9059 17.0648 33.9059C17.0648 33.9059 15.8316 32.3881 16.0295 31.3176Z" fill="#45537A"/>
</g>
</svg>
