<svg width="45" height="44" viewBox="0 0 45 44" fill="none" xmlns="http://www.w3.org/2000/svg">
<path d="M22.5096 44C14.2172 44 6.99288 39.4031 3.25288 32.615C-4.99821 17.6481 6.3826 -0.520891 22.9961 0.011428C33.5646 0.226006 42.492 8.02098 44.195 18.3868C46.4299 31.7649 36.1006 44 22.5096 44Z" fill="url(#paint0_radial_12_455)"/>
<g opacity="0.75">
<path d="M31.239 25.5587C30.3278 25.3317 30.0762 26.4665 30.5917 26.7223C31.1071 26.9823 32.4019 27.7581 32.6616 27.2382C32.9214 26.7223 32.274 25.8186 31.239 25.5587Z" fill="#056DB1"/>
<path d="M40.29 15.9852C39.4076 16.1874 38.3519 16.633 39.255 17.2809C40.1621 17.9287 41.5806 17.6688 41.7126 16.893C41.8404 16.1131 41.9724 15.5973 40.29 15.9852Z" fill="#056DB1"/>
<path d="M22.5756 36.8158C20.6788 35.6769 17.9202 35.2642 17.6604 36.4279C17.4006 37.5915 19.2108 39.4031 21.4086 39.1431C23.6106 38.8873 23.8704 37.5915 22.5756 36.8158Z" fill="#056DB1"/>
<path d="M28.7606 43.0963C27.0494 43.6039 25.2515 43.9092 23.3918 43.9794C23.8166 41.2848 26.3772 42.1348 27.7462 42.5062C28.1462 42.6176 28.4802 42.8363 28.7606 43.0963Z" fill="#056DB1"/>
<path d="M10.5514 36.6879C11.3885 37.0551 11.974 35.2642 10.8112 33.7126C9.6484 32.1611 9.12884 30.2175 7.70624 29.8296C6.28364 29.4417 5.50842 34.4884 10.5514 36.6879Z" fill="#056DB1"/>
<path d="M4.86089 30.3454C4.40318 30.4279 4.2135 31.3811 5.2485 31.5091C6.28349 31.6411 6.28349 30.0895 4.86089 30.3454Z" fill="#056DB1"/>
<path d="M16.3696 25.0429C15.4583 24.9603 14.5594 25.4308 14.6872 26.4665C14.8151 27.5023 16.2377 26.4665 16.8851 26.4665C17.5324 26.4665 17.7922 25.1708 16.3696 25.0429Z" fill="#056DB1"/>
<path d="M25.2928 13.01C24.5093 12.6386 24.3856 14.3057 25.033 14.5616C25.6804 14.8215 27.4906 14.0416 25.2928 13.01Z" fill="#056DB1"/>
</g>
<path d="M17.0169 21.4198C12.6213 22.1956 11.9739 22.3235 7.9659 25.6908C5.3145 27.9149 2.54764 27.1969 0.980721 26.4542C0.687953 25.0181 0.53125 23.5285 0.53125 22.0017C0.53125 15.7459 3.14142 10.0967 7.33088 6.09396C8.19269 6.60565 9.08336 7.29891 9.7761 8.22324C11.7141 10.8106 11.3265 11.8463 17.0169 14.8215C22.7032 17.7967 21.4126 20.644 17.0169 21.4198Z" fill="url(#paint1_linear_12_455)"/>
<path d="M42.3766 12.5767C38.319 11.7266 35.5522 16.3194 32.7895 15.9852C29.5566 15.5973 30.4638 10.8105 27.7464 5.76379C26.3857 3.23837 26.2908 1.48873 26.5341 0.374573C33.5564 1.6703 39.4035 6.30849 42.3766 12.5767Z" fill="url(#paint2_linear_12_455)"/>
<path d="M44.4918 22.0016C44.4918 30.5394 39.6344 37.9382 32.5337 41.586C30.9132 39.0235 33.5399 37.1211 36.6696 35.1363C40.5498 32.6769 36.9294 31.6411 37.5727 27.6302C38.22 23.6192 35.7624 23.3592 36.9253 19.9961C37.7541 17.5945 42.0755 19.8723 44.4795 21.3744C44.4877 21.5807 44.4918 21.7912 44.4918 22.0016Z" fill="url(#paint3_linear_12_455)"/>
<path d="M23.8702 28.6659C21.5198 29.3963 20.2498 26.5944 17.2768 27.2423C14.3037 27.8901 11.8461 33.1927 15.8542 33.0648C19.8622 32.9369 20.8972 32.4169 23.8702 34.4884C26.8432 36.5599 30.3358 35.1363 31.3708 31.9011C32.4017 28.6659 31.7543 26.2065 23.8702 28.6659Z" fill="url(#paint4_linear_12_455)"/>
<path d="M28.7813 18.9604C27.5443 19.3565 27.2309 19.9961 27.6185 20.7719C28.0061 21.5477 29.5565 21.4198 30.3317 22.5835C31.107 23.7471 33.0491 25.1708 33.5645 22.5835C34.0841 19.9961 31.6265 18.0526 28.7813 18.9604Z" fill="url(#paint5_linear_12_455)"/>
<path opacity="0.5" d="M24.2578 12.2301C24.0269 13.955 22.4476 12.2301 19.8622 11.7143C17.2768 11.1984 16.2418 9.64275 17.4046 8.607C18.5674 7.57124 20.1178 6.79546 21.6724 7.69917C23.2228 8.607 24.5135 10.2906 24.2578 12.2301Z" fill="#056DB1"/>
<path d="M21.5406 2.00871C18.3078 2.00871 16.7573 3.82025 13.7843 4.85601C12.0112 5.47086 10.6092 4.75697 9.76392 4.08022C13.3596 1.51353 17.7594 0.00323486 22.5137 0.00323486C22.6787 0.00323486 22.8395 0.00323033 23.0003 0.0114833C23.2271 0.944074 23.1446 2.00871 21.5406 2.00871Z" fill="url(#paint6_linear_12_455)"/>
<path opacity="0.45" d="M43.4443 28.7319C41.6506 34.3233 37.6797 38.9409 32.5336 41.586C31.3337 42.2008 30.0719 42.7084 28.7606 43.1004C27.0494 43.608 25.2515 43.9133 23.3918 43.9835C23.0991 43.9959 22.8063 44 22.5094 44C14.2171 44 6.99275 39.4031 3.25275 32.615C2.20539 30.7168 1.43018 28.6453 0.980721 26.4541C0.687953 25.0181 0.53125 23.5284 0.53125 22.0016C0.53125 19.3441 1.00133 16.7981 1.86314 14.4418C4.3496 21.8737 10.04 31.4637 22.9754 33.2422C25.4989 33.5888 27.8576 33.6342 30.0595 33.4444C35.4613 32.9699 39.9064 31.0799 43.4443 28.7319Z" fill="url(#paint7_linear_12_455)"/>
<path opacity="0.45" d="M44.4919 22.0016C44.4919 24.3496 44.1249 26.6109 43.4445 28.7319C41.6508 34.3233 37.6799 38.9409 32.5338 41.586C31.3338 42.2008 30.0721 42.7084 28.7608 43.1004C27.0496 43.608 25.2517 43.9133 23.392 43.9835C23.0993 43.9959 22.8065 44 22.5096 44C14.2173 44 6.99293 39.4031 3.25293 32.615C7.05478 34.1789 11.5824 35.2477 16.9511 35.4581C22.1591 35.6645 26.4805 34.8598 30.0597 33.4403C37.7541 30.3949 42.0425 24.5022 44.3682 19.6495C44.43 20.2148 44.4672 20.7925 44.4836 21.3702C44.4878 21.5807 44.4919 21.7911 44.4919 22.0016Z" fill="url(#paint8_linear_12_455)"/>
<path d="M44.199 18.3991C44.199 18.3991 41.0693 6.92742 26.6783 3.15166C18.052 0.886212 12.0647 2.92883 8.65454 4.92606C19.5447 -3.97069 36.1994 -0.438399 42.3764 12.5766C43.8114 15.5931 44.0959 17.9782 44.199 18.3991Z" fill="url(#paint9_linear_12_455)"/>
<defs>
<radialGradient id="paint0_radial_12_455" cx="0" cy="0" r="1" gradientUnits="userSpaceOnUse" gradientTransform="translate(23.6008 13.3929) scale(26.6766 26.6962)">
<stop stop-color="#00B3DC"/>
<stop offset="1" stop-color="#056DB0"/>
</radialGradient>
<linearGradient id="paint1_linear_12_455" x1="8.06708" y1="-11.9132" x2="13.1169" y2="51.3567" gradientUnits="userSpaceOnUse">
<stop stop-color="#F2F236"/>
<stop offset="1" stop-color="#F2F236" stop-opacity="0"/>
</linearGradient>
<linearGradient id="paint2_linear_12_455" x1="32.733" y1="-13.8819" x2="37.7828" y2="49.388" gradientUnits="userSpaceOnUse">
<stop stop-color="#F2F236"/>
<stop offset="1" stop-color="#F2F236" stop-opacity="0"/>
</linearGradient>
<linearGradient id="paint3_linear_12_455" x1="34.6914" y1="-14.0383" x2="39.7412" y2="49.2316" gradientUnits="userSpaceOnUse">
<stop stop-color="#F2F236"/>
<stop offset="1" stop-color="#F2F236" stop-opacity="0"/>
</linearGradient>
<linearGradient id="paint4_linear_12_455" x1="19.2892" y1="-12.8089" x2="24.339" y2="50.4611" gradientUnits="userSpaceOnUse">
<stop stop-color="#F2F236"/>
<stop offset="1" stop-color="#F2F236" stop-opacity="0"/>
</linearGradient>
<linearGradient id="paint5_linear_12_455" x1="27.8005" y1="-13.4883" x2="32.8503" y2="49.7818" gradientUnits="userSpaceOnUse">
<stop stop-color="#F2F236"/>
<stop offset="1" stop-color="#F2F236" stop-opacity="0"/>
</linearGradient>
<linearGradient id="paint6_linear_12_455" x1="15.2452" y1="-12.4862" x2="20.2951" y2="50.7838" gradientUnits="userSpaceOnUse">
<stop stop-color="#F2F236"/>
<stop offset="1" stop-color="#F2F236" stop-opacity="0"/>
</linearGradient>
<linearGradient id="paint7_linear_12_455" x1="19.1682" y1="50.4798" x2="22.47" y2="20.3977" gradientUnits="userSpaceOnUse">
<stop stop-color="#00ACD8"/>
<stop offset="1" stop-color="#0983BD"/>
</linearGradient>
<linearGradient id="paint8_linear_12_455" x1="21.3851" y1="49.1865" x2="25.0753" y2="17.746" gradientUnits="userSpaceOnUse">
<stop stop-color="#056EB1"/>
<stop offset="1" stop-color="#00A9D7" stop-opacity="0.3"/>
</linearGradient>
<linearGradient id="paint9_linear_12_455" x1="38.4735" y1="-12.1122" x2="24.6223" y2="15.1818" gradientUnits="userSpaceOnUse">
<stop stop-color="#E2FFB5"/>
<stop offset="1" stop-color="#FFFFB3" stop-opacity="0"/>
</linearGradient>
</defs>
</svg>
