<svg width="32" height="32" viewBox="0 0 32 32" fill="none" xmlns="http://www.w3.org/2000/svg">
<path d="M16 1.9375C19.2441 1.94007 22.3876 3.06383 24.8981 5.11846C27.4085 7.17308 29.1317 10.0323 29.7757 13.2118C30.4198 16.3913 29.945 19.6957 28.432 22.5653C26.9189 25.4349 24.4605 27.6933 21.4731 28.9581C18.0418 30.3804 14.1871 30.3878 10.7503 28.9787C7.31356 27.5696 4.5736 24.8584 3.12835 21.4366C1.6831 18.0148 1.64989 14.1604 3.03597 10.7142C4.42204 7.26805 7.11487 4.51 10.5269 3.04187C12.2583 2.30909 14.1199 1.93346 16 1.9375ZM16 0C7.16375 0 0 7.16375 0 16C0 24.8363 7.16375 32 16 32C24.8363 32 32 24.8363 32 16C32 7.16375 24.8363 0 16 0Z" fill="#FF2147"/>
<path d="M15.9818 24.75C14.5605 24.75 13.1395 24.75 11.7186 24.75C9.76989 24.75 8.36364 23.3487 8.35364 21.4006C8.34989 20.7206 8.34989 20.0404 8.35364 19.36C8.35739 18.6587 8.78239 18.2075 9.43239 18.2062C10.0824 18.205 10.513 18.6531 10.5174 19.3537C10.5218 20.0544 10.5174 20.7387 10.5174 21.4312C10.5224 22.1575 10.9493 22.5806 11.678 22.5812C14.5568 22.5812 17.4353 22.5812 20.3136 22.5812C21.043 22.5812 21.4705 22.1575 21.4761 21.4319C21.4811 20.7394 21.4761 20.0469 21.4761 19.3544C21.4761 18.6619 21.908 18.205 22.5605 18.2062C23.213 18.2075 23.6443 18.6587 23.6386 19.3594C23.6318 20.245 23.6811 21.14 23.5699 22.0137C23.3661 23.6125 22.003 24.7412 20.3855 24.7487C18.9211 24.7531 17.4511 24.75 15.9818 24.75Z" fill="#FF2147"/>
<path d="M14.9168 10.9831C14.7518 11.1369 14.6549 11.2213 14.5649 11.3119C13.8724 12.0113 13.1837 12.715 12.488 13.4119C11.9943 13.9069 11.3062 13.9431 10.8599 13.51C10.4137 13.0769 10.4312 12.3663 10.9168 11.8775C12.3305 10.455 13.7489 9.0375 15.1718 7.625C15.6718 7.125 16.3255 7.125 16.8255 7.625C18.258 9.04583 19.6847 10.4727 21.1055 11.9056C21.573 12.3775 21.5755 13.0869 21.1412 13.5106C20.7068 13.9344 20.0162 13.9156 19.5393 13.4425C18.833 12.7394 18.1374 12.025 17.4362 11.3175C17.3455 11.2263 17.2487 11.1413 17.1043 11.005C17.0949 11.2013 17.0837 11.3281 17.0837 11.455C17.0837 13.6919 17.0868 15.9281 17.0837 18.165C17.0837 19.0044 16.3449 19.5038 15.5768 19.205C15.1518 19.0394 14.9212 18.6706 14.9212 18.1306C14.9187 15.9181 14.9187 13.7058 14.9212 11.4938L14.9168 10.9831Z" fill="#FF2147"/>
</svg>
